<?xml version="1.0" encoding="utf-8"?>
<!-- Generator: Adobe Illustrator 25.2.3, SVG Export Plug-In . SVG Version: 6.00 Build 0)  -->
<svg version="1.2" baseProfile="tiny" id="图层_1"
	 xmlns="http://www.w3.org/2000/svg" xmlns:xlink="http://www.w3.org/1999/xlink" x="0px" y="0px" viewBox="0 0 1200 1200"
	 overflow="visible" xml:space="preserve">
<path fill="#172043" d="M650.78,984.72l347.65-525.99c26.22-39.67-2.23-92.56-49.78-92.56h-695.3c-47.55,0-75.99,52.9-49.78,92.56
	l347.65,525.99C574.82,1020.41,627.2,1020.41,650.78,984.72z"/>
<path fill="#5EC4E4" d="M910.74,566.43L479.19,850.59l76.16,115.17c21.64,32.73,69.68,32.73,91.32,0L910.74,566.43z"/>
<path fill="none" stroke="#EFEFEF" stroke-width="4" stroke-miterlimit="10" d="M862.59,639.25l119.93-181.36
	c22.32-33.75-1.88-78.76-42.34-78.76H266.21c-42.33,0-67.65,47.1-44.3,82.41l74.76,113.05"/>
<g>
	<polygon fill="#FFFFFF" points="400.98,397.43 395.76,391.68 400.98,397.43 	"/>
	<path fill="#FFFFFF" d="M397.34,391.41l4.64,5.11l0.51,0.56l-0.21,0.73l-1.67,5.75l-0.37,1.27l-1.28-0.33l-7.39-1.93l-7.2,17.05
		l9.59,19.73l0.06-0.02v-15.73v-1.48l1.25-0.8l8.74-5.63c3.93-19.25,10.69-38.01,20.19-55.34l-16.95,6.99L397.34,391.41z"/>
	<polygon fill="#FFFFFF" points="390.79,400.96 382.89,419.67 392.7,439.86 392.7,439.86 382.89,419.67 	"/>
	<path fill="#FFFFFF" d="M428.07,330.42l0.01,0.07l-17.41,24.64l-15.54,0.97l0.99-1.35l13-2.16l15.06-20.44l-38.37,17.08
		l-23.36,34.32l-0.66,8.79c0.8-0.42,1.7-0.66,2.67-0.66c3.18,0,5.75,2.57,5.75,5.75s-2.57,5.75-5.75,5.75
		c-1.27,0-2.45-0.42-3.4-1.12l-1.05,13.95c1.05-1.28,2.65-2.1,4.44-2.1c3.18,0,5.75,2.57,5.75,5.75s-2.57,5.75-5.75,5.75
		c-2.1,0-3.93-1.13-4.94-2.81l-3.89,51.88l5.68,19.87L377,537.46l25.14,7.36l0.76-3.23l-7.5-12.8l-10.66-1.92l-1.9-0.34l-0.3-1.91
		l-11.67-73.83l-0.34-2.15l2.03-0.8l17.47-6.9l-10.42-20.24l8.9-18.31l2.28-1.41l8.52,2.22l0.9-3.1l-8.26-6.6l9.03-22.43l5.24-4.76
		l19.06-7.86c1.01-1.79,2.04-3.58,3.11-5.34c4.83-7.91,10.29-15.44,16.29-22.53l-14.69-0.99L428.07,330.42z"/>
	<path fill="#172043" d="M402.14,544.81L377,537.46l-15.68-43.11l-5.68-19.87l3.89-51.88c-0.51-0.86-0.81-1.86-0.81-2.94
		c0-1.39,0.49-2.66,1.31-3.65l1.05-13.95c-1.42-1.05-2.35-2.73-2.35-4.63c0-2.21,1.25-4.13,3.08-5.09l0.66-8.79l23.36-34.32
		l38.37-17.08l3.57-4.85l0.32,3.11l1.92-0.85l14.69,0.99c1.08-1.28,2.18-2.54,3.29-3.79l-18.7-1.26l-46.13,20.53l-24.6,36.15
		l-6.92,92.35l-0.03,0.36l5.9,20.62l16.44,45.21l27.3,7.99L402.14,544.81z"/>
	<path fill="#172043" d="M370.21,397.43c0-3.18-2.57-5.75-5.75-5.75c-0.96,0-1.87,0.24-2.67,0.66c-1.83,0.96-3.08,2.88-3.08,5.09
		c0,1.9,0.93,3.59,2.35,4.63c0.95,0.7,2.12,1.12,3.4,1.12C367.63,403.18,370.21,400.61,370.21,397.43z"/>
	<path fill="#172043" d="M364.46,425.42c3.18,0,5.75-2.57,5.75-5.75s-2.57-5.75-5.75-5.75c-1.79,0-3.39,0.82-4.44,2.1
		c-0.82,0.99-1.31,2.26-1.31,3.65c0,1.07,0.3,2.08,0.81,2.94C360.52,424.29,362.36,425.42,364.46,425.42z"/>
	<path fill="#FFFFFF" d="M833.65,532.39l13.84-38.04l5.68-19.87l-3.89-51.88c-1,1.68-2.84,2.81-4.94,2.81
		c-3.18,0-5.75-2.57-5.75-5.75s2.57-5.75,5.75-5.75c1.79,0,3.39,0.82,4.44,2.1l-1.05-13.95c-0.95,0.7-2.12,1.12-3.4,1.12
		c-3.18,0-5.75-2.57-5.75-5.75s2.57-5.75,5.75-5.75c0.96,0,1.87,0.24,2.67,0.66l-0.66-8.79l-22.01-32.34
		c-0.82-1.21-2.04-2.11-3.44-2.54l-34.3-10.58l10.69,14.5l13,2.16l0.99,1.35l-15.54-0.97l-16.43-23.25
		c-1.8-1.37-4.04-2.07-6.37-1.91l-10.73,0.73c5.95,7.05,11.37,14.54,16.18,22.4c1.04,1.72,2.04,3.45,3.03,5.2l19.4,8l5.24,4.76
		l9.03,22.43l-8.26,6.6l-0.06-0.2l0.96,3.3l8.52-2.22l0,0l0,0h0v0l2.28,1.41l8.9,18.31L816.97,441l6.53,2.58
		c2.38,0.9,4.76,2.45,6.51,4.43c1.81,1.97,3.1,4.39,3.79,6.96c0.34,1.29,0.51,2.62,0.56,3.96c-0.02,0.67,0,1.34-0.1,2l-0.12,0.98
		l-0.13,0.83l-1.05,6.62l-2.09,13.25l-4.19,26.5l-1.05,6.62l-0.52,3.31l-0.26,1.66l-0.07,0.45c-0.04,0.21-0.08,0.42-0.14,0.63
		c-0.11,0.42-0.25,0.82-0.43,1.22c-0.7,1.58-1.93,2.9-3.45,3.7c-0.73,0.4-1.65,0.68-2.38,0.8l-1.65,0.3l-5.37,0.97l-7.5,12.8
		l0.89,3.79l21.86-6.39C829.87,538.02,832.5,535.56,833.65,532.39z"/>
	<polygon fill="#FFFFFF" points="814.3,439.95 814.3,439.95 824.16,419.67 	"/>
	<path fill="#FFFFFF" d="M815.46,402.57l-7.39,1.93l-1.28,0.33l-0.37-1.27l-1.67-5.75l-0.21-0.73l0.51-0.56l4.64-5.11l-9.92-24.07
		l-17.29-7.13c9.54,17.37,16.33,36.18,20.27,55.48l5.06,3.26l0.75,0.48c0.28,0.18,0.68,0.46,1,0.72c0.65,0.55,1.23,1.2,1.7,1.91
		c0.95,1.42,1.47,3.13,1.48,4.84l0,12.44l0.28,0.11l9.64-19.82L815.46,402.57z"/>
	<path fill="#172043" d="M762.22,330.69l10.73-0.73c2.33-0.16,4.57,0.54,6.37,1.91l-0.98-1.39l0.33-3.18l7.95,10.78l34.3,10.58
		c1.4,0.43,2.62,1.33,3.44,2.54l22.01,32.34l0.66,8.79c1.83,0.96,3.08,2.88,3.08,5.09c0,1.9-0.93,3.59-2.35,4.63l1.05,13.95
		c0.82,0.99,1.31,2.26,1.31,3.65c0,1.07-0.3,2.08-0.81,2.94l3.89,51.88l-5.68,19.87l-13.84,38.04c-1.16,3.18-3.78,5.64-7.02,6.59
		l-21.86,6.39l0.91,3.9l22.07-6.46c4.46-1.3,8.07-4.69,9.66-9.06l13.86-38.11l5.94-20.75l-6.95-92.7l-22.61-33.23
		c-1.33-1.96-3.31-3.42-5.57-4.11l-35.95-11.09l-1.6-2.21c-2.75-3.8-7.18-5.89-11.86-5.57l-13.74,0.93
		C760.04,328.15,761.14,329.41,762.22,330.69z"/>
	<path fill="#FFFFFF" d="M542.72,774.16c4.08-11.75,12.33-19.08,17.68-22.8c-39.37-5.6-70.08-20.44-91.97-35.09
		c-17,2.32-29.89,8.95-38.35,19.74c-11.86,15.14-11.56,33.86-11.06,40.15c37.26,24.56,82.59,40.78,130.31,46.9
		C540.08,804.65,537.84,788.2,542.72,774.16z"/>
	<path fill="#FFFFFF" d="M420.87,699.1c7.6-4.02,14.63-5.27,19.11-5.61c-1.54-1.48-2.93-2.87-4.17-4.14
		c-19.11-19.63-31.68-41.47-32.99-56.9c-11.45,4.29-44.4,18.97-50.41,47.47l37.97,57.42C398.71,715.03,411.11,704.27,420.87,699.1z"
		/>
	<path fill="#FFFFFF" d="M417.97,775.46c-0.46-7.07-0.29-25.26,11.32-40.07c8.44-10.76,21.18-17.45,37.9-19.95
		c-11.1-7.54-19.85-14.97-26.24-21.02c-4.29,0.23-11.64,1.33-19.67,5.59c-9.68,5.14-22.01,15.9-30.22,38.36l22.58,34.15
		c1.14,0.79,2.29,1.58,3.46,2.36C417.39,775.08,417.68,775.27,417.97,775.46z"/>
	<path fill="#FFFFFF" d="M795.6,665.34c-1.26-0.88-2.5-1.72-3.71-2.53c-5.29,8.39-13.93,19.11-26.08,30.21
		c22.53,11.83,33.27,44.27,37.17,59.63l27.26-41.22C828.33,695.62,816.75,680.18,795.6,665.34z"/>
	<path fill="#FFFFFF" d="M777.98,779.22l-0.14-0.67c-10.66-50.85-28.62-63.03-37.15-65.94c-29.06,19.32-77.14,41.01-146.55,41.09
		c-6.38,3.42-11,8.37-13.74,14.76c-7.22,16.81-0.55,40.3,6.45,57.28c47.55,0.67,102.73-9.1,148.96-26.5
		c21.27-8.01,39.56-17.2,54.25-27.06l0.31-0.46c-3.72,2.44-7.65,4.84-11.79,7.17L777.98,779.22z"/>
	<path fill="#FFFFFF" d="M765.01,693.74c-5.98,5.4-12.77,10.88-20.41,16.21c-0.91,0.63-1.84,1.27-2.79,1.91
		c2.76,1.03,6.28,2.95,10.17,6.54c8.03,7.42,19.15,23.72,26.7,59.27c4.63-2.63,9-5.34,13.1-8.09l10.42-15.76
		C798.51,739,787.85,705.47,765.01,693.74z"/>
	<path fill="#FFFFFF" d="M543.66,774.5c-4.82,13.9-2.53,30.24,6.79,48.58c4.09,0.56,8.21,1.02,12.33,1.43
		c5.96,0.52,11.95,0.89,17.96,1.1c1.66,0.06,3.34,0.1,5.03,0.13c-7.02-17.13-13.59-40.67-6.28-57.67
		c2.61-6.08,6.86-10.89,12.66-14.37c-10.6-0.07-20.69-0.82-30.27-2.12C556.73,754.97,547.89,762.29,543.66,774.5z"/>
	<path fill="#172043" d="M797.89,662.06c-1.34-0.94-2.66-1.83-3.96-2.69c-0.62,1.1-1.3,2.24-2.05,3.44
		c1.22,0.81,2.45,1.64,3.71,2.53c21.16,14.84,32.73,30.28,34.63,46.1l3.13-4.73C830.35,693.39,820.62,678,797.89,662.06z"/>
	<path fill="#172043" d="M402.81,632.45c-0.1-1.15-0.14-2.26-0.11-3.33c0.01-0.31,0.03-0.61,0.05-0.92
		c-5.16,1.82-16.51,6.34-27.69,14.23c-13.36,9.43-22.01,20.62-25.64,32.98l2.99,4.52C358.41,651.42,391.37,636.74,402.81,632.45z"/>
	<path fill="#172043" d="M417.97,775.46c-0.29-0.19-0.58-0.38-0.87-0.57c-1.16-0.78-2.32-1.57-3.46-2.36l2.17,3.28
		c0.77,0.52,1.54,1.05,2.32,1.56C418.08,776.88,418.02,776.23,417.97,775.46z"/>
	<path fill="#172043" d="M586.85,825.73c0.09,0.21,0.17,0.42,0.26,0.62l0.3,0.71l-1.23-0.03c-0.46-0.01-0.91-0.02-1.37-0.04
		c-11.58-0.39-23.27-1.39-34.76-2.97l-0.26-0.04l-0.12-0.23c-0.12-0.24-0.23-0.47-0.35-0.71c-47.72-6.11-93.04-22.33-130.31-46.9
		c0.1,1.23,0.2,1.99,0.23,2.15l0.16,1.1l-0.93-0.61c-0.42-0.27-0.82-0.55-1.24-0.83l2.11,3.19c45.57,29.3,102.6,46.47,161.26,48.44
		c3.58,0.12,7.2,0.18,10.86,0.18c46.94,0,100.6-9.79,145.76-26.8c18.01-6.78,33.95-14.43,47.45-22.65l5.39-8.15
		c-14.69,9.86-32.98,19.05-54.25,27.06C689.59,816.64,634.41,826.41,586.85,825.73z"/>
	<path fill="#172043" d="M562.78,824.5c7.35,0.73,14.73,1.25,22.06,1.5c0.35,0.01,0.7,0.02,1.04,0.03c-0.04-0.1-0.08-0.21-0.13-0.31
		c-1.69-0.03-3.36-0.07-5.03-0.13C574.73,825.39,568.75,825.02,562.78,824.5z"/>
	<path fill="#304E7B" d="M816.26,400.96l-8.52,2.22l-0.96-3.3l-0.71-2.45l5.22-5.75l-10.46-25.39l-19.4-8
		c0.36,0.64,0.72,1.27,1.07,1.91l17.29,7.13l9.92,24.07l-4.64,5.11l-0.51,0.56l0.21,0.73l1.67,5.75l0.37,1.27l1.28-0.33l7.39-1.93
		l7.2,17.05l-9.64,19.82l1.27,0.5l9.86-20.28L816.26,400.96z"/>
	<polygon fill="#304E7B" points="816.26,400.96 816.26,400.96 816.26,400.96 	"/>
	<polygon fill="#304E7B" points="824.16,419.67 814.3,439.95 816.97,441 827.44,420.68 	"/>
	<polygon fill="#304E7B" points="815.1,393.49 806.06,371.06 800.82,366.29 811.28,391.68 	"/>
	<polygon fill="#304E7B" points="806.06,397.43 806.77,399.88 806.83,400.09 815.1,393.49 811.28,391.68 	"/>
	<polygon fill="#304E7B" points="827.44,420.68 818.54,402.37 816.26,400.96 816.26,400.96 816.26,400.96 816.26,400.96 
		824.16,419.67 	"/>
	<path fill="#304E7B" d="M395.76,391.68l5.22,5.75v0l0,0l-0.77,2.65l0,0l-0.9,3.1l-8.52-2.22l-7.9,18.71l9.82,20.19l1.27-0.5
		l-9.59-19.73l7.2-17.05l7.39,1.93l1.28,0.33l0.37-1.27l1.67-5.75l0.21-0.73l-0.51-0.56l-4.64-5.11l9.92-24.07l16.95-6.99
		c0.35-0.64,0.71-1.28,1.07-1.91l-19.06,7.86L395.76,391.68z"/>
	<polygon fill="#304E7B" points="379.6,420.68 390.02,440.92 392.7,439.86 382.89,419.67 	"/>
	<polygon fill="#304E7B" points="406.22,366.29 400.98,371.06 391.95,393.49 395.76,391.68 	"/>
	<polygon fill="#304E7B" points="400.98,397.43 400.98,397.43 395.76,391.68 391.95,393.49 400.21,400.09 400.21,400.09 	"/>
	<polygon fill="#304E7B" points="390.79,400.96 388.51,402.37 379.6,420.68 382.89,419.67 	"/>
	<path fill="#FFFFFF" d="M453.19,625.26c-7.2-8.29-13.67-17.18-19.44-26.52c-0.76-0.09-1.52-0.16-2.28-0.16
		c-5.12,0-10.21,2.11-13.79,6.23c-7.08,8.13-10.77,16.35-10.99,24.41c-0.39,14.47,12.16,36.98,31.97,57.33
		c1.55,1.59,3.34,3.36,5.36,5.26c-4.31-28.93,27.54-46.5,27.87-46.68l0.14-0.08l0.16,0.02c0.23,0.03,0.57,0.08,1,0.14
		C466.07,639.06,459.37,632.38,453.19,625.26z"/>
	<path fill="#FFFFFF" d="M474.68,646.46c-0.83-0.13-1.65-0.25-2.45-0.36c-2.33,1.32-32.17,18.85-26.98,46.87
		c6.45,5.97,15.1,13.14,25.93,20.34c-1.11-5.73-3.25-21.77,4.15-34.44c4.56-7.81,11.95-13.07,21.96-15.65
		c0.09-0.02,0.16-0.04,0.24-0.07c-0.5-0.31-1-0.6-1.49-0.92C488.57,657.48,481.44,652.19,474.68,646.46z"/>
	<path fill="#FFFFFF" d="M560.44,702.88c-4.34,11.56-3.93,31.19,5.25,45.14c8.91,1.08,18.24,1.68,28.02,1.68c0.01,0,0.04,0,0.05,0
		c1.2,0,2.37-0.02,3.56-0.04c-2.7-6.59-11.46-31.23-2.85-55.1c-8.01-0.7-15.99-1.79-23.89-3.28
		C566.32,692.68,562.74,696.76,560.44,702.88z"/>
	<path fill="#FFFFFF" d="M710.32,662.49c9.51,3.59,28.62,14.97,26.1,48.13c2.05-1.33,4.02-2.65,5.89-3.96
		c7.22-5.03,13.62-10.17,19.25-15.21c-0.23-3.76-2.9-34.2-29.24-45.18c-6.83,5.8-14.03,11.15-21.59,15.96
		C710.6,662.32,710.46,662.4,710.32,662.49z"/>
	<path fill="#FFFFFF" d="M603.53,695.19l-0.14,0.01l-0.14-0.01c-2.59-0.14-5.17-0.32-7.76-0.54c-0.01,0.02-0.01,0.04-0.02,0.06
		c-8.78,24.1,0.48,49.06,2.93,54.93c63.74-0.9,108.73-20.29,136.96-38.35l0.01-0.15c2.82-33.87-17.14-44.81-26.13-48
		c-15.55,9.73-32.44,17.28-49.98,22.54C641.15,691.14,622.37,694.2,603.53,695.19z"/>
	<path fill="#FFFFFF" d="M559.51,702.53c2.13-5.68,5.37-9.7,9.25-11.58c-7.15-1.41-14.24-3.15-21.23-5.25
		c-17.11-5.13-33.58-12.44-48.81-21.82c-0.38,0.1-0.77,0.21-1.17,0.31c-9.74,2.51-16.92,7.62-21.35,15.18
		c-7.72,13.22-4.8,30.24-3.84,34.71c22.01,14.43,52.75,28.81,92.06,33.79C555.49,733.68,555.15,714.12,559.51,702.53z"/>
	<path fill="#FFFFFF" d="M793.83,650.03c2.79-9.25-1.81-27.58-11.71-36.49c-4.87-4.38-10.25-5.81-16.02-4.29
		c-3.9,5.54-8.07,10.89-12.51,16c-6.29,7.25-13.12,14.04-20.4,20.3c25.06,10.78,28.8,38.86,29.32,45.04
		C781.93,672.96,791.84,656.61,793.83,650.03z"/>
	<path fill="#172043" d="M564.87,748.62c-0.16-0.25-0.3-0.51-0.46-0.76c-39.31-4.98-70.05-19.36-92.06-33.79
		c0.15,0.69,0.25,1.1,0.26,1.12l0.15,0.57l-0.59,0.06c-1.27,0.12-2.52,0.27-3.75,0.44c21.89,14.65,52.6,29.49,91.97,35.09
		C562.45,749.93,564.08,749.03,564.87,748.62z"/>
	<path fill="#172043" d="M402.81,632.45c1.31,15.43,13.89,37.27,32.99,56.9c1.24,1.27,2.63,2.66,4.17,4.14
		c2.01-0.15,3.51-0.13,4.32-0.09c-0.1-0.53-0.19-1.05-0.27-1.58c-2.02-1.9-3.81-3.67-5.36-5.26
		c-19.81-20.35-32.36-42.86-31.97-57.33c0.22-8.07,3.91-16.28,10.99-24.41c3.58-4.11,8.66-6.23,13.79-6.23
		c0.76,0,1.52,0.06,2.28,0.16c-0.84-1.37-1.67-2.74-2.49-4.13c-6.17,0.06-12.28,2.61-16.6,7.57c-7.44,8.55-11.44,17.29-11.92,26.01
		c-0.02,0.31-0.04,0.61-0.05,0.92C402.67,630.19,402.72,631.3,402.81,632.45z"/>
	<path fill="#172043" d="M766.1,609.25c5.77-1.52,11.15-0.09,16.02,4.29c9.9,8.91,14.51,27.25,11.71,36.49
		c-1.99,6.58-11.9,22.93-31.33,40.57c0.03,0.38,0.05,0.69,0.07,0.9c1.11,0.46,2.18,0.97,3.24,1.53
		c12.15-11.1,20.79-21.82,26.08-30.21c0.75-1.2,1.44-2.34,2.05-3.44c1.82-3.24,3.07-6.02,3.72-8.19
		c3.19-10.56-1.74-30.61-12.87-40.62c-4.73-4.26-10.02-6.22-15.59-5.86C768.18,606.23,767.16,607.75,766.1,609.25z"/>
	<path fill="#172043" d="M445.4,693.84l0.14,0.67l-0.68-0.07c-0.04,0-1.49-0.14-3.9-0.01c6.39,6.05,15.14,13.48,26.24,21.02
		c1.41-0.21,2.85-0.4,4.32-0.55c-0.08-0.37-0.2-0.91-0.33-1.59c-10.83-7.2-19.47-14.36-25.93-20.34
		C445.31,693.25,445.34,693.54,445.4,693.84z"/>
	<path fill="#172043" d="M736.42,710.63c0,0.02,0,0.04,0,0.06c0.91,0.02,2.82,0.21,5.4,1.17c0.95-0.64,1.88-1.28,2.79-1.91
		c7.65-5.33,14.44-10.81,20.41-16.21c-1.02-0.52-2.05-1-3.12-1.44l-0.3-0.12l-0.01-0.33c0-0.02-0.01-0.17-0.02-0.4
		c-5.63,5.04-12.03,10.18-19.25,15.21C740.44,707.97,738.47,709.3,736.42,710.63z"/>
	<path fill="#172043" d="M593.72,749.7c-9.78,0-19.11-0.6-28.02-1.68c0.11,0.17,0.21,0.35,0.32,0.51l0.33,0.49l-0.54,0.25
		c-0.05,0.02-1.62,0.76-3.94,2.3c9.58,1.3,19.68,2.05,30.27,2.12c1.76-1.06,3.66-1.99,5.7-2.8c-0.13-0.29-0.3-0.7-0.52-1.22
		c-1.19,0.01-2.36,0.04-3.56,0.04C593.75,749.7,593.73,749.7,593.72,749.7z"/>
	<path fill="#172043" d="M598.96,750.94l0.23,0.49l-0.51,0.19c-1.6,0.61-3.12,1.3-4.55,2.07c69.41-0.08,117.49-21.77,146.55-41.09
		c-2.9-0.99-4.72-0.91-4.78-0.91l-0.58,0.04l0.04-0.44c-28.23,18.06-73.22,37.44-136.96,38.35
		C598.74,750.45,598.95,750.91,598.96,750.94z"/>
	<path fill="#172043" d="M765.81,693.02c-1.05-0.55-2.13-1.07-3.24-1.53c-0.01-0.21-0.03-0.52-0.07-0.9
		c-0.52-6.18-4.25-34.27-29.32-45.04c-0.28,0.24-0.58,0.48-0.86,0.72c26.34,10.98,29.01,41.42,29.24,45.18
		c0.01,0.23,0.02,0.38,0.02,0.4l0.01,0.33l0.3,0.12c1.06,0.43,2.1,0.91,3.12,1.44c22.84,11.73,33.49,45.26,37.19,60.09l0.77-1.17
		C799.07,737.3,788.34,704.86,765.81,693.02z"/>
	<path fill="#172043" d="M751.98,718.4c-3.89-3.59-7.41-5.51-10.17-6.54c-2.57-0.96-4.49-1.15-5.4-1.17c0-0.02,0-0.04,0-0.06
		c2.52-33.17-16.59-44.55-26.1-48.13c-0.36,0.23-0.72,0.44-1.08,0.66c8.99,3.19,28.96,14.13,26.13,48l-0.01,0.15l-0.04,0.44
		l0.58-0.04c0.06,0,1.88-0.08,4.78,0.91c8.53,2.91,26.5,15.09,37.15,65.94l0.14,0.67l0.6-0.34c4.14-2.34,8.07-4.73,11.79-7.17
		l1.41-2.13c-4.09,2.76-8.47,5.46-13.1,8.09C771.14,742.12,760.01,725.82,751.98,718.4z"/>
	<path fill="#172043" d="M598.69,751.62l0.51-0.19l-0.23-0.49c-0.02-0.03-0.23-0.49-0.56-1.29c-2.45-5.86-11.71-30.83-2.93-54.93
		c0.01-0.02,0.01-0.04,0.02-0.06c-0.34-0.03-0.68-0.07-1.02-0.1c-8.61,23.88,0.16,48.52,2.85,55.1c0.21,0.52,0.39,0.94,0.52,1.22
		c-2.04,0.81-3.94,1.75-5.7,2.8c-5.8,3.48-10.05,8.29-12.66,14.37c-7.3,16.99-0.73,40.54,6.28,57.67c0.04,0.1,0.08,0.21,0.13,0.31
		c-0.35-0.01-0.7-0.02-1.04-0.03c-7.34-0.25-14.72-0.77-22.06-1.5c-4.13-0.41-8.24-0.87-12.33-1.43
		c-9.33-18.34-11.62-34.68-6.79-48.58c4.23-12.2,13.07-19.53,18.21-22.94c2.32-1.54,3.89-2.27,3.94-2.3l0.54-0.25l-0.33-0.49
		c-0.11-0.17-0.21-0.34-0.32-0.51c-9.18-13.95-9.6-33.58-5.25-45.14c2.3-6.11,5.88-10.2,10.13-11.6c-0.61-0.11-1.22-0.22-1.82-0.34
		c-3.88,1.88-7.11,5.9-9.25,11.58c-4.36,11.6-4.02,31.16,4.9,45.34c0.16,0.25,0.3,0.51,0.46,0.76c-0.79,0.41-2.42,1.31-4.47,2.74
		c-5.34,3.72-13.6,11.05-17.68,22.8c-4.88,14.04-2.64,30.49,6.61,48.89c0.12,0.24,0.23,0.47,0.35,0.71l0.12,0.23l0.26,0.04
		c11.49,1.58,23.18,2.58,34.76,2.97c0.45,0.02,0.91,0.03,1.37,0.04l1.23,0.03l-0.3-0.71c-0.09-0.21-0.17-0.42-0.26-0.62
		c-7-16.98-13.67-40.48-6.45-57.28c2.74-6.39,7.36-11.33,13.74-14.76C595.57,752.93,597.09,752.24,598.69,751.62z"/>
	<path fill="#172043" d="M421.28,700.01c8.03-4.26,15.38-5.36,19.67-5.59c2.42-0.13,3.86,0.01,3.9,0.01l0.68,0.07l-0.14-0.67
		c-0.06-0.29-0.1-0.58-0.15-0.87c-5.19-28.01,24.65-45.55,26.98-46.87c0.8,0.11,1.62,0.24,2.45,0.36c-0.49-0.41-0.99-0.81-1.47-1.23
		c-0.43-0.06-0.77-0.11-1-0.14l-0.16-0.02l-0.14,0.08c-0.33,0.18-32.18,17.75-27.87,46.68c0.08,0.52,0.16,1.05,0.27,1.58
		c-0.81-0.04-2.31-0.06-4.32,0.09c-4.48,0.35-11.5,1.59-19.11,5.61c-9.76,5.17-22.16,15.92-30.49,38.24l0.68,1.03
		C399.27,715.91,411.61,705.15,421.28,700.01z"/>
	<path fill="#172043" d="M419.41,779.4l-0.16-1.1c-0.02-0.16-0.13-0.92-0.23-2.15c-0.5-6.29-0.8-25.01,11.06-40.15
		c8.46-10.79,21.35-17.41,38.35-19.74c1.23-0.17,2.48-0.32,3.75-0.44l0.59-0.06l-0.15-0.57c-0.01-0.03-0.11-0.43-0.26-1.12
		c-0.96-4.47-3.88-21.49,3.84-34.71c4.42-7.57,11.6-12.68,21.35-15.18c0.4-0.1,0.79-0.21,1.17-0.31c-0.39-0.24-0.79-0.48-1.18-0.72
		c-0.08,0.02-0.16,0.04-0.24,0.07c-10.01,2.58-17.4,7.84-21.96,15.65c-7.41,12.67-5.26,28.71-4.15,34.44
		c0.13,0.68,0.25,1.22,0.33,1.59c-1.47,0.15-2.9,0.34-4.32,0.55c-16.72,2.49-29.47,9.18-37.9,19.95
		c-11.61,14.82-11.78,33-11.32,40.07c0.05,0.77,0.11,1.42,0.16,1.9c-0.78-0.52-1.54-1.04-2.32-1.56l1.43,2.16
		c0.42,0.27,0.82,0.55,1.24,0.83L419.41,779.4z"/>
	<path fill="#FFFFFF" d="M664.24,298.66l0.17,0.17v0.62l0.67,3.12l-0.67-0.2v1.7c0,3.09-1.42,5.92-3.89,7.77
		c-2.49,1.86-5.62,2.42-8.61,1.53c-44.22-13.09-91.01-3.9-109.07,0.65c-0.8,0.2-1.6,0.3-2.4,0.3c-2.13,0-4.22-0.71-5.95-2.06
		c-2.38-1.86-3.75-4.65-3.75-7.68v-2.23l-0.67,0.2l0.67-3.12v-1.34l0.3-0.08l3.72-17.35c-19.82,6.49-38.64,15.91-55.46,28.15
		c-17.79,12.99-33.08,29.35-44.87,48.01c-11.93,18.59-20.25,39.45-25.32,61.08l-0.26,1.12l-0.92,0.6l-8.45,5.45v16.1v1.85
		l-1.72,0.68l-21.17,8.36l11.03,69.77l9.99,1.8l1.23,0.22l0.63,1.08l8.68,14.82l0.55,0.94l-0.25,1.06l-2.53,10.8l9.6,13.45
		l10.97,8.49l0.51,0.4l0.28,0.59c7.9,16.66,17.95,32.31,30.03,46.21c12.07,13.91,26.14,26.07,41.67,35.96
		c15.52,9.91,32.47,17.54,50.12,22.84c17.61,5.3,35.9,8.28,54.3,9.26c18.4-0.98,36.69-3.97,54.3-9.26
		c17.65-5.3,34.6-12.93,50.12-22.84c15.53-9.89,29.6-22.04,41.67-35.96c12.09-13.9,22.13-29.55,30.03-46.21l0.28-0.59l0.51-0.4
		l10.97-8.49l9.6-13.45l-2.53-10.8l-0.25-1.06l0.55-0.94l8.68-14.82l0.63-1.08l1.23-0.22l6.6-1.19l1.65-0.3
		c0.38-0.07,0.54-0.13,0.79-0.25c0.45-0.24,0.83-0.64,1.03-1.11c0.05-0.12,0.09-0.24,0.13-0.36c0.02-0.06,0.02-0.13,0.04-0.19
		l0.06-0.38l0.26-1.66l0.52-3.31l1.05-6.62l4.19-26.5l2.09-13.25l1.05-6.62l0.13-0.83l0.08-0.68c0.07-0.45,0.04-0.9,0.07-1.35
		c-0.04-0.9-0.14-1.8-0.38-2.67c-0.93-3.52-3.55-6.43-7.04-7.73l-12.48-4.93l-1.72-0.68l0-1.85l0-14.23
		c-0.01-0.67-0.2-1.33-0.58-1.89c-0.18-0.28-0.41-0.53-0.66-0.74c-0.15-0.12-0.22-0.18-0.45-0.32l-0.75-0.48l-5.99-3.86l-0.02-0.01
		l-0.92-0.59l-0.26-1.12c-5.07-21.63-13.38-42.49-25.32-61.08c-11.79-18.66-27.09-35.02-44.87-48.01
		c-17.81-12.96-37.86-22.77-58.97-29.27c-2.97-0.92-5.97-1.77-8.98-2.56c0.15,0.52,0.29,1.05,0.4,1.59L664.24,298.66z
		 M394.53,515.83l-4.57-58.74l14.98-7.94v-20.36l6.44-4.31l-0.02,33.03l-2.47,8.3l2.08,51.58L394.53,515.83z M416.03,563.38
		l-7.93-11.95l1.46-7.65l16.45,28.41L416.03,563.38z M789.71,563.55l-9.89,8.7l16.45-28.41l1.46,7.65L789.71,563.55z M801.8,449.14
		l14.98,7.94l-0.03,0.33l-4.55,58.42l-16.43,1.57l0.02-0.57l2.06-51.01l-2.49-8.45v-32.89l6.44,4.31V449.14z M695.34,341.2l0.29,0
		l23.32-23.33l0.33,0.19c20.01,11.65,34.96,26.95,43.24,44.25l0.15,0.31l-20.25,21.64l-0.01,0.04l-0.13,0.1l-0.41,0.43l-0.05-0.07
		l-2.76,2.21l-0.3-0.48c-14.15-22.73-42.9-39.76-43.19-39.93l-0.25-0.14V342l-0.32-0.18l0.32-0.32V341.2z M703.63,374.24
		c0.29,0.15,0.58,0.29,0.87,0.44c2.35,1.25,4.67,2.56,6.96,3.91l3.39,2.11l0.85,0.53l0.42,0.26c0.24,0.16,0.59,0.43,0.83,0.74
		c0.51,0.61,0.79,1.45,0.78,2.23c41.51,28.22,55.89,73.21,52.63,121.86c-4.81,71.68-56.22,135.94-126.34,152.29
		c-0.02,0.15-0.03,0.29-0.05,0.44c-6.74,1.43-13.65,2.4-20.7,2.91c-4.67,0.43-9.39,0.66-14.18,0.66
		c-80.33,0-159.24-48.07-171.26-145.29c-5.96-48.25,1.51-95.92,36.72-127.14c-0.15-0.29-0.28-0.58-0.33-0.91
		c-0.13-0.93,0.44-1.86,1-2.42c0.52-0.55,1.11-1.13,1.29-1.22c3.27-2.57,6.67-4.95,10.17-7.16c16.73-12.65,54.63-35.36,111.08-35.36
		c0,0,0,0,0,0C643.22,343.13,670.01,350.64,703.63,374.24z"/>
	<path fill="#FFFFFF" d="M739.33,385.49l1.94-1.56c-11.48-16.93-31.05-33.43-44.93-41.37v3.28
		C699.19,347.57,725.67,363.92,739.33,385.49z"/>
	<polygon fill="#FFFFFF" points="783.76,567.46 789,562.84 796.67,551.28 795.8,546.67 	"/>
	<path fill="#FFFFFF" d="M596.67,352.94c10.53,0.02,21.07,0.44,31.57,1.4c10.5,0.93,20.98,2.37,31.33,4.57
		c10.34,2.23,20.57,5.15,30.44,9.09c1.23,0.51,2.47,0.97,3.69,1.51l3.63,1.64c0.01,0.01,0.03,0.01,0.04,0.02
		c-30.86-20.42-56.99-27.05-99.63-27.05c-47.75,0-82.13,16.31-101.56,28.92c11.91-6.17,24.71-10.58,37.7-13.6
		C554.45,354.51,575.63,353,596.67,352.94z"/>
	<polygon fill="#FFFFFF" points="416.83,562.77 422.07,567.39 410.04,546.6 409.16,551.22 	"/>
	<path fill="#FFFFFF" d="M407.87,465.69l2.5-8.39v-30.95l-4.44,2.97v20.42L391,457.66l4.45,57.25l14.45,1.38L407.87,465.69z
		 M399,460.83c0-1.91,1.55-3.45,3.45-3.45c1.91,0,3.45,1.55,3.45,3.45s-1.55,3.45-3.45,3.45C400.55,464.28,399,462.74,399,460.83z
		 M406.55,513.81l-2.27-42.65l1-0.05l2.27,42.65L406.55,513.81z"/>
	<path fill="#FFFFFF" d="M800.8,429.32l-4.44-2.97v30.95l2.5,8.39l0,0.08l-2.04,50.52l14.45-1.38l4.46-57.25l-14.93-7.92V429.32z
		 M804.28,457.37c1.91,0,3.45,1.55,3.45,3.45s-1.55,3.45-3.45,3.45s-3.45-1.55-3.45-3.45S802.37,457.37,804.28,457.37z
		 M801.46,471.1l1,0.05l-2.27,42.65l-1-0.05L801.46,471.1z"/>
	<path fill="#172043" d="M433.76,598.74c5.76,9.33,12.23,18.23,19.44,26.52c6.18,7.13,12.87,13.8,20.01,19.97
		c0.48,0.42,0.99,0.82,1.47,1.23c6.76,5.73,13.89,11.02,21.36,15.78c0.49,0.31,1,0.61,1.49,0.92c0.39,0.24,0.79,0.48,1.18,0.72
		c15.23,9.38,31.7,16.69,48.81,21.82c6.99,2.1,14.08,3.84,21.23,5.25c0.61,0.12,1.22,0.22,1.82,0.34
		c7.91,1.49,15.88,2.58,23.89,3.28c0.34,0.03,0.68,0.07,1.02,0.1c2.58,0.22,5.17,0.4,7.76,0.54l0.14,0.01l0.14-0.01
		c18.84-1,37.62-4.05,55.73-9.49c17.54-5.26,34.43-12.81,49.98-22.54c0.36-0.22,0.72-0.44,1.08-0.66c0.14-0.09,0.28-0.17,0.42-0.26
		c7.55-4.81,14.76-10.16,21.59-15.96c0.28-0.24,0.58-0.47,0.86-0.72c7.28-6.26,14.11-13.05,20.4-20.3c4.45-5.12,8.61-10.47,12.51-16
		c1.06-1.5,2.08-3.02,3.1-4.55c5.59-8.4,10.58-17.19,14.93-26.29l10.79-8.35l0.32-0.25l0.23-0.33l10.54-14.78l0.71-1l-0.28-1.2
		l-0.76-3.25l-0.91-3.9l-0.89-3.79l7.5-12.8l5.37-0.97l1.65-0.3c0.72-0.12,1.64-0.4,2.38-0.8c1.52-0.81,2.76-2.13,3.45-3.7
		c0.18-0.39,0.32-0.8,0.43-1.22c0.06-0.21,0.09-0.42,0.14-0.63l0.07-0.45l0.26-1.66l0.52-3.31l1.05-6.62l4.19-26.5l2.09-13.25
		l1.05-6.62l0.13-0.83l0.12-0.98c0.1-0.66,0.07-1.33,0.1-2c-0.05-1.33-0.21-2.67-0.56-3.96c-0.69-2.58-1.99-4.99-3.79-6.96
		c-1.75-1.98-4.14-3.53-6.51-4.43l-6.53-2.58l-2.68-1.06h0l-1.27-0.5l-0.28-0.11l0-12.44c-0.02-1.71-0.53-3.41-1.48-4.84
		c-0.47-0.71-1.05-1.36-1.7-1.91c-0.31-0.26-0.72-0.55-1-0.72l-0.75-0.48l-5.06-3.26c-3.94-19.31-10.73-38.11-20.27-55.48
		c-0.35-0.64-0.71-1.28-1.07-1.91c-0.99-1.75-1.99-3.48-3.03-5.2c-4.8-7.86-10.23-15.35-16.18-22.4c-1.08-1.28-2.17-2.54-3.28-3.79
		c-8.04-9.02-16.97-17.26-26.64-24.53c-18.37-13.89-39.37-24.06-61.22-30.95c-5.72-1.79-11.5-3.36-17.33-4.72
		c2.68,2.91,4.7,6.42,5.8,10.31c3.01,0.8,6.01,1.64,8.98,2.56c21.11,6.5,41.16,16.31,58.97,29.27
		c17.79,12.99,33.08,29.35,44.87,48.01c11.93,18.59,20.25,39.45,25.32,61.08l0.26,1.12l0.92,0.59l0.02,0.01l5.99,3.86l0.75,0.48
		c0.22,0.14,0.3,0.2,0.45,0.32c0.25,0.22,0.48,0.47,0.66,0.74c0.38,0.55,0.57,1.22,0.58,1.89l0,14.23l0,1.85l1.72,0.68l12.48,4.93
		c3.5,1.3,6.11,4.21,7.04,7.73c0.23,0.87,0.34,1.77,0.38,2.67c-0.03,0.45,0.01,0.9-0.07,1.35l-0.08,0.68l-0.13,0.83l-1.05,6.62
		l-2.09,13.25l-4.19,26.5l-1.05,6.62l-0.52,3.31l-0.26,1.66l-0.06,0.38c-0.02,0.06-0.02,0.13-0.04,0.19
		c-0.03,0.12-0.07,0.25-0.13,0.36c-0.21,0.47-0.58,0.87-1.03,1.11c-0.25,0.13-0.41,0.19-0.79,0.25l-1.65,0.3l-6.6,1.19l-1.23,0.22
		l-0.63,1.08l-8.68,14.82l-0.55,0.94l0.25,1.06l2.53,10.8l-9.6,13.45l-10.97,8.49l-0.51,0.4l-0.28,0.59
		c-7.9,16.66-17.95,32.31-30.03,46.21c-12.07,13.91-26.14,26.07-41.67,35.96c-15.52,9.91-32.47,17.54-50.12,22.84
		c-17.61,5.3-35.9,8.28-54.3,9.26c-18.4-0.98-36.69-3.97-54.3-9.26c-17.65-5.3-34.6-12.93-50.12-22.84
		c-15.53-9.89-29.6-22.04-41.67-35.96c-12.09-13.9-22.13-29.55-30.03-46.21l-0.28-0.59l-0.51-0.4l-10.97-8.49l-9.6-13.45l2.53-10.8
		l0.25-1.06l-0.55-0.94l-8.68-14.82l-0.63-1.08l-1.23-0.22l-9.99-1.8l-11.03-69.77l21.17-8.36l1.72-0.68v-1.85v-16.1l8.45-5.45
		l0.92-0.6l0.26-1.12c5.07-21.63,13.38-42.49,25.32-61.08c11.79-18.66,27.09-35.02,44.87-48.01c16.82-12.24,35.64-21.66,55.46-28.15
		l0.45-2.09c0.62-2.88,1.74-5.58,3.25-8.01c-0.91,0.27-1.83,0.55-2.74,0.83c-21.85,6.89-42.85,17.06-61.22,30.95
		c-9.62,7.24-18.52,15.43-26.53,24.41c-1.11,1.25-2.21,2.51-3.29,3.79c-5.99,7.09-11.45,14.62-16.29,22.53
		c-1.07,1.76-2.1,3.55-3.11,5.34c-0.36,0.64-0.72,1.27-1.07,1.91c-9.5,17.33-16.26,36.09-20.19,55.34l-8.74,5.63l-1.25,0.8v1.48
		v15.73l-0.06,0.02l-1.27,0.5l0,0l-2.68,1.06l-17.47,6.9l-2.03,0.8l0.34,2.15l11.67,73.83l0.3,1.91l1.9,0.34l10.66,1.92l7.5,12.8
		l-0.76,3.23l-0.91,3.9l-0.89,3.8l-0.28,1.2l0.71,1l10.54,14.78l0.23,0.33l0.32,0.25l10.79,8.35c2.64,5.52,5.52,10.92,8.61,16.2
		C432.08,596,432.91,597.37,433.76,598.74z"/>
	<path fill="#20305B" d="M716.93,386.68c-0.49,0.61-1.24,1.07-2.02,1.21c-0.19,0.04-0.39,0.07-0.57,0.07
		c-0.17,0.01-0.43,0-0.46-0.01l-0.48-0.03l-1.92-0.1c-1.28-0.1-2.56-0.07-3.84-0.09c-2.56-0.01-5.12,0.13-7.67,0.38
		c-5.11,0.48-10.19,1.4-15.21,2.67c-10.06,2.49-19.9,6.13-29.61,10.02l-7.26,3c-2.43,1-4.78,2.11-7.28,3.02
		c-2.47,0.93-4.9,1.97-7.46,2.62l-3.79,1.11c-1.27,0.34-2.57,0.58-3.85,0.88c-1.29,0.28-2.56,0.58-3.85,0.83l-3.9,0.57
		c-2.59,0.46-5.22,0.58-7.83,0.81l-1.96,0.17l-1.97,0.04l-1,0.02c-0.51,0.01-1.01,0.02-1.51,0.03l-1.42,0.03
		c-0.3,0-0.59-0.01-0.89-0.01c-0.16,0-0.32,0-0.48-0.01c-0.37-0.01-0.74-0.02-1.11-0.03c-3.55-0.08-7.05-0.33-10.49-0.74
		c-0.91-0.1-1.81-0.2-2.72-0.33c-0.73-0.13-1.46-0.24-2.19-0.35c-0.03,0-0.05-0.01-0.08-0.01c-1.83-0.28-3.67-0.56-5.47-1.02
		l-3.85-0.84c-1.27-0.32-2.53-0.7-3.8-1.04c-2.56-0.63-5.01-1.59-7.5-2.44c-4.9-1.91-9.79-3.98-14.25-6.86l-1.71-1.02l-1.62-1.16
		l-3.21-2.33c-2.02-1.52-4.28-2.72-6.63-3.67c-4.72-1.91-9.82-2.82-14.93-3.29c-5.12-0.48-10.29-0.38-15.45-0.13
		c-5.16,0.28-10.3,0.9-15.43,1.64c-2.56,0.38-5.11,0.81-7.66,1.29l-1.9,0.37l-0.95,0.19l-0.47,0.1l-0.24,0.05
		c-0.12,0.02-0.41,0.06-0.61,0.08c-0.91,0.06-1.94-0.23-2.7-0.81c-0.48-0.37-0.87-0.83-1.15-1.34
		c-35.21,31.22-42.68,78.89-36.72,127.14c12.02,97.21,90.93,145.29,171.26,145.29c4.79,0,9.51-0.23,14.18-0.66
		c-3.69,0.27-7.42,0.41-11.19,0.41c-72.94,0-144.72-39.64-166.3-119.73c20.85-15.79,39.16-25.81,67.33-25.81
		c18.44,0,36.82,3.92,53.76,11.02c32.86-38.33,86.51-81.94,168.1-99.16c1.75-0.4,2.69-0.58,2.69-0.58
		c-96.95,47.76-125.99,93.07-133.22,122.83c26.24,22.54,43.06,54.57,40.71,90.92c-0.37,5.67-0.41,11.27-1.13,16.74
		c70.12-16.35,121.54-80.6,126.34-152.29c3.26-48.65-11.13-93.64-52.63-121.86c0,0.02,0,0.04,0,0.06
		C717.71,385.33,717.42,386.07,716.93,386.68z M545.41,465.09l-5.64-2.96l-5.64,2.96l1.08-6.28l-4.56-4.44l6.3-0.92l2.82-5.71
		l2.82,5.71l6.3,0.92l-4.56,4.44L545.41,465.09z M651.47,447.29l-1.09,3.63l-2.22-3.07l-3.79,0.09l2.24-3.06l-1.25-3.58l3.6,1.18
		l3.02-2.3l-0.01,3.79l3.12,2.16L651.47,447.29z M701.33,469.43l0.68-3.73l2.55,2.81l3.76-0.51l-1.88,3.29l1.64,3.42l-3.71-0.77
		l-2.74,2.62l-0.41-3.77l-3.34-1.8L701.33,469.43z M707.18,539.49l-3.54-1.36l-3.13,2.15l0.2-3.79l-3.01-2.31l3.66-0.98l1.27-3.57
		l2.07,3.18l3.79,0.1l-2.39,2.95L707.18,539.49z"/>
	<path fill="#20305B" d="M584.52,536.71c5.1,3.01,9.99,6.32,14.64,9.92c20.03-69.45,138.52-118.51,138.52-118.51
		C639.09,466.66,599.7,507.05,584.52,536.71z"/>
	<path fill="#20305B" d="M569.91,529.17c3.32,1.48,6.58,3.09,9.77,4.81c36.24-69.65,157.99-105.86,157.99-105.86
		c-0.91,0.18-1.79,0.39-2.69,0.58C718.79,432.38,632.8,454.83,569.91,529.17z"/>
	<path fill="#FFFFFF" d="M478.52,388.38c0.28,0.03,0.81-0.2,0.85-0.5c0.01-0.11-0.03-0.21-0.08-0.29c-0.25,0.2-0.5,0.39-0.75,0.59
		C478.19,388.46,478.26,388.33,478.52,388.38z"/>
	<path fill="#FFFFFF" d="M625.38,410.94c1.26-0.33,2.55-0.59,3.79-1l3.71-1.27c2.5-0.76,4.86-1.9,7.26-2.92
		c2.4-0.99,4.75-2.22,7.12-3.33l7.15-3.33c9.56-4.36,19.27-8.55,29.48-11.54c5.11-1.47,10.34-2.64,15.67-3.27
		c2.66-0.31,5.35-0.5,8.03-0.55c1.34-0.01,2.69-0.06,4.03,0.02l0.27,0.01l-2.58-1.61c-2.23-1.31-4.48-2.58-6.76-3.79
		c-2.32-1.14-4.59-2.4-6.97-3.41l-3.54-1.6c-1.18-0.52-2.4-0.98-3.6-1.47c-9.6-3.91-19.54-7.01-29.68-9.35
		c-10.13-2.37-20.45-4.05-30.83-5.15c-10.38-1.07-20.83-1.6-31.29-1.74c-20.88-0.01-41.88,1.43-62.2,6.24
		c-10.13,2.45-20.09,5.64-29.54,9.98c-8.64,4-16.85,8.91-24.34,14.72l1.11-0.18c2.63-0.4,5.26-0.76,7.91-1.05
		c5.28-0.61,10.61-0.89,15.93-0.95c5.33-0.03,10.68,0.28,15.98,1.1c5.28,0.83,10.57,2.12,15.46,4.46c2.44,1.17,4.77,2.6,6.84,4.36
		l3.02,2.49l1.51,1.23l1.61,1.09c4.24,3.01,8.94,5.34,13.74,7.41c2.45,0.92,4.86,1.94,7.38,2.65c1.25,0.38,2.5,0.8,3.76,1.15
		l3.82,0.92c2.54,0.67,5.15,0.98,7.73,1.46c2.59,0.41,5.21,0.61,7.81,0.91c1.22,0.04,2.43,0.11,3.65,0.17
		C607.1,414.09,616.41,413.21,625.38,410.94z"/>
	<path fill="#FFFFFF" d="M603.46,413.9c0.5-0.01,1.01-0.01,1.51-0.03L603.46,413.9z"/>
	<path fill="#FFFFFF" d="M601.16,413.91c-0.16,0-0.32,0-0.48-0.01C600.83,413.91,600.99,413.91,601.16,413.91z"/>
	<path fill="#FFFFFF" d="M714.14,383.84c0.13,0.01,0.03-0.01,0.03,0l-0.04,0L714.14,383.84z"/>
	<path fill="#FFFFFF" d="M597.83,413.8c-1.22-0.04-2.44-0.09-3.65-0.17c-1.7-0.18-3.41-0.32-5.11-0.5
		c3.44,0.41,6.95,0.66,10.49,0.74C598.99,413.85,598.41,413.83,597.83,413.8z"/>
	<path fill="#FFFFFF" d="M584.08,412.43c0.03,0,0.05,0.01,0.08,0.01C584.13,412.44,584.11,412.44,584.08,412.43z"/>
	<path fill="#172043" d="M714.7,383.65c-6.01-4.64-11.75-8.77-17.33-12.47c-0.01-0.01-0.03-0.01-0.04-0.02l-3.63-1.64
		c-1.21-0.54-2.46-1.01-3.69-1.51c-9.87-3.93-20.1-6.86-30.44-9.09c-10.35-2.2-20.83-3.64-31.33-4.57
		c-10.5-0.96-21.04-1.38-31.57-1.4c-21.04,0.05-42.22,1.57-62.78,6.51c-12.99,3.02-25.79,7.43-37.7,13.6
		c-12.08,7.83-18.39,14.23-18.55,14.4l-0.72-0.69c0.12-0.12,3.42-3.47,9.76-8.26c-3.5,2.21-6.9,4.58-10.17,7.16
		c-0.18,0.09-0.77,0.67-1.29,1.22c-0.56,0.56-1.13,1.49-1,2.42c0.05,0.32,0.18,0.62,0.33,0.91c0.27,0.51,0.67,0.97,1.15,1.34
		c0.75,0.58,1.79,0.88,2.7,0.81c0.2-0.01,0.49-0.05,0.61-0.08l0.24-0.05l0.47-0.1l0.95-0.19l1.9-0.37c2.54-0.48,5.1-0.91,7.66-1.29
		c5.12-0.73,10.27-1.35,15.43-1.64c5.15-0.25,10.33-0.35,15.45,0.13c5.11,0.47,10.21,1.38,14.93,3.29c2.36,0.95,4.61,2.15,6.63,3.67
		l3.21,2.33l1.62,1.16l1.71,1.02c4.47,2.87,9.36,4.95,14.25,6.86c2.49,0.85,4.95,1.8,7.5,2.44c1.27,0.35,2.53,0.72,3.8,1.04
		l3.85,0.84c1.8,0.46,3.64,0.73,5.47,1.02c0.03,0,0.05,0.01,0.08,0.01c0.73,0.11,1.46,0.23,2.19,0.35c0.9,0.13,1.81,0.24,2.72,0.33
		c1.7,0.18,3.41,0.32,5.11,0.5c-2.61-0.3-5.22-0.5-7.81-0.91c-2.58-0.48-5.19-0.79-7.73-1.46l-3.82-0.92
		c-1.26-0.36-2.5-0.77-3.76-1.15c-2.52-0.71-4.94-1.73-7.38-2.65c-4.79-2.07-9.5-4.4-13.74-7.41l-1.61-1.09l-1.51-1.23l-3.02-2.49
		c-2.07-1.76-4.41-3.19-6.84-4.36c-4.89-2.34-10.18-3.63-15.46-4.46c-5.3-0.81-10.65-1.12-15.98-1.1
		c-5.33,0.05-10.65,0.34-15.93,0.95c-2.64,0.3-5.28,0.65-7.91,1.05l-1.11,0.18c7.49-5.81,15.7-10.72,24.34-14.72
		c9.45-4.34,19.42-7.53,29.54-9.98c20.32-4.81,41.31-6.26,62.2-6.24c10.46,0.14,20.9,0.67,31.29,1.74
		c10.38,1.1,20.69,2.78,30.83,5.15c10.14,2.34,20.09,5.44,29.68,9.35c1.2,0.49,2.41,0.95,3.6,1.47l3.54,1.6
		c2.38,1.02,4.65,2.27,6.97,3.41c2.28,1.22,4.53,2.49,6.76,3.79l2.58,1.61l-0.27-0.01c-1.34-0.07-2.69-0.03-4.03-0.02
		c-2.69,0.05-5.37,0.24-8.03,0.55c-5.33,0.63-10.56,1.81-15.67,3.27c-10.21,2.99-19.92,7.18-29.48,11.54l-7.15,3.33
		c-2.38,1.1-4.72,2.34-7.12,3.33c-2.4,1.02-4.75,2.16-7.26,2.92l-3.71,1.27c-1.24,0.41-2.53,0.66-3.79,1
		c-8.97,2.27-18.28,3.16-27.55,2.86c0.58,0.03,1.15,0.05,1.73,0.07c0.37,0.01,0.74,0.02,1.11,0.03c0.16,0,0.32,0,0.48,0.01
		c0.3,0,0.59,0.01,0.89,0.01l1.42-0.03l1.51-0.03l1-0.02l1.97-0.04l1.96-0.17c2.61-0.24,5.24-0.35,7.83-0.81l3.9-0.57
		c1.29-0.25,2.57-0.56,3.85-0.83c1.28-0.3,2.58-0.53,3.85-0.88l3.79-1.11c2.56-0.65,4.99-1.69,7.46-2.62
		c2.5-0.9,4.85-2.02,7.28-3.02l7.26-3c9.71-3.9,19.55-7.54,29.61-10.02c5.02-1.27,10.1-2.2,15.21-2.67
		c2.55-0.25,5.11-0.38,7.67-0.38c1.28,0.02,2.56-0.01,3.84,0.09l1.92,0.1l0.48,0.03c0.03,0,0.29,0.01,0.46,0.01
		c0.18,0,0.38-0.03,0.57-0.07c0.78-0.15,1.53-0.6,2.02-1.21c0.5-0.61,0.78-1.35,0.81-2.15c0-0.02,0-0.04,0-0.06
		c0.01-0.78-0.26-1.62-0.78-2.23c-0.24-0.31-0.6-0.58-0.83-0.74l-0.42-0.26l-0.85-0.53l-3.39-2.11c-2.29-1.35-4.61-2.66-6.96-3.91
		c-0.29-0.14-0.58-0.29-0.87-0.44c3.8,2.67,7.68,5.53,11.69,8.62L714.7,383.65z M714.14,383.84l-0.01,0l0.04,0
		C714.17,383.83,714.28,383.85,714.14,383.84z M479.37,387.88c-0.04,0.3-0.57,0.54-0.85,0.5c-0.26-0.06-0.33,0.08,0.02-0.21
		c0.25-0.2,0.5-0.39,0.75-0.59C479.34,387.67,479.38,387.77,479.37,387.88z"/>
	<path fill="#172043" d="M594.18,413.63c1.22,0.08,2.43,0.13,3.65,0.17C596.61,413.74,595.4,413.67,594.18,413.63z"/>
	<path fill="#DDE8F6" d="M734.98,428.7c-81.59,17.22-135.24,60.83-168.1,99.16c1.02,0.43,2.02,0.86,3.03,1.31
		C632.8,454.83,718.79,432.38,734.98,428.7z"/>
	<path fill="#DDE8F6" d="M734.98,428.7c0.9-0.19,1.79-0.39,2.69-0.58C737.67,428.12,736.73,428.3,734.98,428.7z"/>
	<path fill="#DDE8F6" d="M579.68,533.98c1.63,0.88,3.24,1.79,4.84,2.73c15.18-29.66,54.57-70.05,153.15-108.59
		C737.67,428.12,615.92,464.33,579.68,533.98z"/>
	<path fill="#DDE8F6" d="M599.15,546.63c1.8,1.4,3.57,2.84,5.29,4.32c7.23-29.76,36.27-75.07,133.22-122.83
		C737.67,428.12,619.18,477.18,599.15,546.63z"/>
	<path fill="#FFFFFF" d="M534.73,304.6c0,1.78,0.8,3.43,2.21,4.52c1.4,1.09,3.19,1.47,4.91,1.03c18.38-4.64,66.01-13.98,111.18-0.61
		c1.77,0.52,3.62,0.19,5.08-0.9c1.45-1.09,2.29-2.75,2.29-4.57v-2.91c-35.2-10.49-73.34-11.88-109.32-4.18l-16.35,4.23V304.6z"/>
	<polygon fill="#172043" points="530.73,299.45 531.04,298.04 530.73,298.12 	"/>
	<polygon fill="#172043" points="664.24,298.66 664.41,299.45 664.41,298.83 	"/>
	<path fill="#172043" d="M534.48,312.27c1.73,1.35,3.81,2.06,5.95,2.06c0.8,0,1.6-0.1,2.4-0.3c18.06-4.56,64.85-13.74,109.07-0.65
		c2.99,0.88,6.12,0.32,8.61-1.53c2.47-1.85,3.89-4.68,3.89-7.77v-1.7l-2.58-0.79c-0.47-0.14-0.94-0.28-1.42-0.42v2.91
		c0,1.82-0.83,3.48-2.29,4.57c-1.47,1.1-3.31,1.43-5.08,0.9c-45.17-13.37-92.8-4.03-111.18,0.61c-1.72,0.44-3.51,0.06-4.91-1.03
		c-1.4-1.09-2.21-2.74-2.21-4.52v-3.38l16.35-4.23c-5.99,1.28-11.92,2.81-17.77,4.6l-2.58,0.79v2.23
		C530.73,307.62,532.1,310.42,534.48,312.27z"/>
	<path fill="#FFFFFF" d="M543.47,287l-0.67,0.2l0.67-3.12v-1.34l0.3-0.08l3.3-15.38c0.03-0.16,0.08-0.31,0.12-0.47
		c-4.05,3.08-6.98,7.52-8.07,12.62l-3.72,17.35c3.46-1,6.95-1.91,10.47-2.73c-1.53-1.53-2.4-3.59-2.4-5.8V287z"/>
	<path fill="#FFFFFF" d="M651.51,283.3l0.17,0.17v0.62l0.67,3.12l-0.67-0.2v0.83c0,2.38-1.01,4.58-2.77,6.13
		c3.64,0.85,7.26,1.79,10.84,2.82l-3.72-17.35c-1.09-5.11-4.02-9.55-8.07-12.62c0.04,0.16,0.08,0.31,0.12,0.47L651.51,283.3z"/>
	<path fill="#172043" d="M535.21,278.6l-0.45,2.09l-3.72,17.35l-0.3,1.41l-0.67,3.12l0.67-0.2l2.58-0.79
		c5.85-1.79,11.78-3.31,17.77-4.6c35.98-7.71,74.12-6.31,109.32,4.18c0.47,0.14,0.94,0.27,1.42,0.42l2.58,0.79l0.67,0.2l-0.67-3.12
		l-0.17-0.79l-4.3-20.06c-0.12-0.54-0.25-1.07-0.4-1.59c-1.1-3.89-3.12-7.4-5.8-10.31c-2.33-2.53-5.16-4.59-8.35-6.04
		c1.17,1.88,2.05,3.95,2.58,6.15c4.05,3.08,6.98,7.52,8.07,12.62l3.72,17.35c-3.59-1.04-7.2-1.97-10.84-2.82
		c-0.17,0.15-0.33,0.3-0.51,0.43c-2.1,1.57-4.75,2.04-7.27,1.29c-35.45-10.49-72.96-3.12-87.44,0.53c-0.67,0.17-1.35,0.25-2.03,0.25
		c-1.8,0-3.56-0.6-5.02-1.73c-0.27-0.21-0.53-0.44-0.77-0.68c-3.51,0.83-7,1.73-10.47,2.73l3.72-17.35
		c1.09-5.11,4.02-9.55,8.07-12.62c0.53-2.21,1.4-4.28,2.58-6.15c-4.7,2.13-8.63,5.6-11.31,9.92
		C536.94,273.02,535.82,275.72,535.21,278.6z"/>
	<path fill="#FFFFFF" d="M547.47,288.26c0,1.31,0.59,2.52,1.62,3.32c1.03,0.8,2.34,1.08,3.61,0.76c14.8-3.73,53.16-11.26,89.56-0.49
		c1.3,0.38,2.66,0.14,3.74-0.66c1.07-0.8,1.68-2.02,1.68-3.36v-2.04c-28.14-8.34-58.61-9.43-87.36-3.27l-12.85,3.32V288.26z"/>
	<polygon fill="#172043" points="543.47,284.08 543.77,282.67 543.47,282.75 	"/>
	<polygon fill="#172043" points="651.51,283.3 651.68,284.08 651.68,283.46 	"/>
	<path fill="#172043" d="M651.68,287.83V287l-2.58-0.79c-0.47-0.14-0.94-0.28-1.42-0.42v2.04c0,1.34-0.61,2.56-1.68,3.36
		c-1.08,0.81-2.44,1.05-3.74,0.66c-36.4-10.77-74.75-3.25-89.56,0.49c-1.27,0.32-2.58,0.04-3.61-0.76c-1.03-0.8-1.62-2.01-1.62-3.32
		v-2.41l12.85-3.32c-4.81,1.03-9.57,2.25-14.26,3.69l-2.58,0.79v1.26c0,2.21,0.86,4.27,2.4,5.8c0.24,0.24,0.49,0.47,0.77,0.68
		c1.46,1.14,3.22,1.73,5.02,1.73c0.67,0,1.35-0.08,2.03-0.25c14.48-3.65,52-11.02,87.44-0.53c2.52,0.75,5.17,0.27,7.27-1.29
		c0.18-0.13,0.35-0.28,0.51-0.43C650.67,292.41,651.68,290.22,651.68,287.83z"/>
	<path fill="#FFFFFF" d="M607.81,264.62l-23.92,0.01l1.36-12.7c-7.16,0.57-14.28,1.62-21.27,3.18c-6.52,1.45-11.62,6.56-13,13.01
		l-2.85,13.3c32.02-9.11,66.87-9.11,98.89,0l-2.85-13.3c-1.38-6.45-6.49-11.56-13-13.01c-5.69-1.27-11.47-2.2-17.29-2.81l0.22,2.58
		L607.81,264.62z"/>
	<path fill="#172043" d="M547.19,266.82c-0.04,0.16-0.08,0.31-0.12,0.47l-3.3,15.38l-0.3,1.41l-0.67,3.12l0.67-0.2l2.58-0.79
		c4.69-1.43,9.45-2.66,14.26-3.69c28.75-6.16,59.22-5.07,87.36,3.27c0.47,0.14,0.94,0.27,1.42,0.42l2.58,0.79l0.67,0.2l-0.67-3.12
		l-0.17-0.79l-3.43-16.01c-0.03-0.16-0.08-0.31-0.12-0.47c-0.53-2.21-1.4-4.28-2.58-6.15c-2.94-4.71-7.72-8.19-13.35-9.45
		c-6.09-1.36-12.28-2.34-18.51-2.96l0.34,4.05c5.82,0.61,11.6,1.54,17.29,2.81c6.52,1.45,11.62,6.56,13,13.01l2.85,13.3
		c-32.02-9.11-66.87-9.11-98.89,0l2.85-13.3c1.38-6.45,6.49-11.56,13-13.01c6.99-1.56,14.1-2.62,21.27-3.18l0.43-4.04
		c-7.6,0.57-15.16,1.66-22.57,3.32c-5.63,1.26-10.41,4.74-13.35,9.45C548.59,262.54,547.72,264.61,547.19,266.82z"/>
	<polygon fill="#172043" points="585.25,251.93 583.89,264.63 607.81,264.62 604.23,217.17 588.98,217.17 585.68,247.9 	"/>
	<polygon fill="#FFFFFF" points="608.86,260.48 612.69,254.54 610.64,230.32 606.01,222.71 	"/>
	<path fill="#172043" d="M607.81,264.62l6.28-9.73l-0.22-2.58l-0.34-4.05l-1.56-18.37l-7.73-12.71L607.81,264.62z M610.64,230.32
		l2.05,24.22l-3.83,5.94l-2.84-37.77L610.64,230.32z"/>
	<path fill="#172043" d="M838.6,397.43c0,3.18,2.57,5.75,5.75,5.75c1.27,0,2.45-0.42,3.4-1.12c1.42-1.05,2.35-2.73,2.35-4.63
		c0-2.21-1.25-4.13-3.08-5.09c-0.8-0.42-1.7-0.66-2.67-0.66C841.17,391.68,838.6,394.26,838.6,397.43z"/>
	<path fill="#172043" d="M844.35,413.92c-3.18,0-5.75,2.57-5.75,5.75s2.57,5.75,5.75,5.75c2.1,0,3.93-1.13,4.94-2.81
		c0.51-0.86,0.81-1.86,0.81-2.94c0-1.39-0.49-2.66-1.31-3.65C847.74,414.73,846.14,413.92,844.35,413.92z"/>
	<polygon fill="#172043" points="811.28,356.1 810.3,354.75 797.3,352.59 786.61,338.09 778.66,327.31 778.33,330.49 779.31,331.88 
		795.74,355.12 	"/>
	<polygon fill="#172043" points="396.11,354.75 395.13,356.1 410.67,355.12 428.08,330.49 428.07,330.42 427.75,327.31 
		424.17,332.15 409.11,352.59 	"/>
	<path fill="#304E7B" d="M804.28,464.28c1.91,0,3.45-1.55,3.45-3.45s-1.55-3.45-3.45-3.45s-3.45,1.55-3.45,3.45
		S802.37,464.28,804.28,464.28z"/>
	<path fill="#304E7B" d="M795.37,424.48v32.89l2.49,8.45l-2.06,51.01l-0.02,0.57l16.43-1.57l4.55-58.42l0.03-0.33l-14.98-7.94
		v-20.36L795.37,424.48z M815.73,457.66l-4.46,57.25l-14.45,1.38l2.04-50.52l0-0.08l-2.5-8.39v-30.95l4.44,2.97v20.42L815.73,457.66
		z"/>
	
		<rect x="779.47" y="491.96" transform="matrix(0.053 -0.9986 0.9986 0.053 266.5809 1266.0311)" fill="#304E7B" width="42.71" height="1"/>
	<path fill="#304E7B" d="M405.91,460.83c0-1.91-1.55-3.45-3.45-3.45c-1.91,0-3.45,1.55-3.45,3.45s1.55,3.45,3.45,3.45
		C404.37,464.28,405.91,462.74,405.91,460.83z"/>
	<path fill="#304E7B" d="M408.88,465.82l2.47-8.3l0.02-33.03l-6.44,4.31v20.36l-14.98,7.94l4.57,58.74l16.43,1.57L408.88,465.82z
		 M391,457.66l14.93-7.92v-20.42l4.44-2.97v30.95l-2.5,8.39l2.04,50.6l-14.45-1.38L391,457.66z"/>
	
		<rect x="405.41" y="471.1" transform="matrix(0.9986 -0.053 0.053 0.9986 -25.5503 22.2244)" fill="#304E7B" width="1" height="42.71"/>
	<path fill="#304E7B" d="M779.83,572.25l9.89-8.7l8.02-12.05l-1.46-7.65L779.83,572.25z M789,562.84l-5.25,4.62l12.04-20.79
		l0.88,4.61L789,562.84z"/>
	<path fill="#304E7B" d="M408.1,551.43l7.93,11.95l9.97,8.8l-16.45-28.41L408.1,551.43z M422.07,567.39l-5.25-4.62l-7.67-11.56
		l0.88-4.61L422.07,567.39z"/>
	<path fill="#304E7B" d="M741.28,383.94l-1.94,1.56c-13.67-21.58-40.14-37.93-42.99-39.64v-3.28c-0.24-0.14-0.5-0.3-0.74-0.43
		l-0.26-0.14v4.43l0.25,0.14c0.29,0.17,29.05,17.2,43.19,39.93l0.3,0.48l2.76-2.21l-0.3-0.45
		C741.46,384.19,741.36,384.06,741.28,383.94z"/>
	<polygon fill="#304E7B" points="695.34,341.2 695.34,341.49 695.64,341.2 	"/>
	<polygon fill="#304E7B" points="742.42,384.3 742.43,384.26 742.3,384.4 	"/>
	<path fill="#FFFFFF" d="M742.02,383.24l19.47-20.8c-8.17-16.89-22.81-31.86-42.36-43.31l-22.46,22.46
		C713.07,350.9,731.55,367.87,742.02,383.24z"/>
	<path fill="#304E7B" d="M695.34,342l0.26,0.14c0.24,0.13,0.5,0.29,0.74,0.43c13.88,7.94,33.45,24.44,44.93,41.37
		c0.08,0.13,0.18,0.25,0.26,0.38l0.3,0.45l0.05,0.07l0.41-0.43l0.13-0.14l20.25-21.64l-0.15-0.31c-8.28-17.3-23.23-32.6-43.24-44.25
		l-0.33-0.19l-23.32,23.33l-0.29,0.29l-0.32,0.32L695.34,342z M719.12,319.12c19.55,11.45,34.19,26.42,42.36,43.31l-19.47,20.8
		c-10.46-15.37-28.95-32.34-45.35-41.65L719.12,319.12z"/>
	<polygon fill="#DDE8F6" points="542.59,453.45 539.77,447.74 536.95,453.45 530.65,454.37 535.21,458.81 534.14,465.09 
		539.77,462.13 545.41,465.09 544.33,458.81 548.89,454.37 	"/>
	<polygon fill="#DDE8F6" points="651.97,440.18 648.96,442.48 645.35,441.29 646.61,444.87 644.37,447.93 648.16,447.85 
		650.38,450.92 651.47,447.29 655.08,446.13 651.96,443.97 	"/>
	<polygon fill="#DDE8F6" points="704.7,532.8 702.63,529.62 701.36,533.2 697.7,534.18 700.71,536.49 700.51,540.28 703.64,538.13 
		707.18,539.49 706.1,535.85 708.49,532.9 	"/>
	<polygon fill="#DDE8F6" points="701.62,476.56 704.36,473.94 708.08,474.71 706.43,471.3 708.32,468 704.56,468.51 702.01,465.7 
		701.33,469.43 697.87,470.99 701.21,472.79 	"/>
	<path fill="#DDE8F6" d="M604.44,550.95c-1.72-1.48-3.49-2.92-5.29-4.32c-4.64-3.6-9.54-6.91-14.64-9.92
		c-1.59-0.94-3.2-1.85-4.84-2.73c-3.19-1.72-6.45-3.33-9.77-4.81c-1-0.45-2.01-0.89-3.03-1.31c-16.94-7.1-35.32-11.02-53.76-11.02
		c-28.17,0-46.48,10.02-67.33,25.81c21.58,80.08,93.35,119.73,166.3,119.73c3.77,0,7.49-0.15,11.19-0.41
		c7.05-0.51,13.96-1.49,20.7-2.91c0.02-0.14,0.03-0.29,0.05-0.44c0.72-5.48,0.77-11.08,1.13-16.74
		C647.51,605.52,630.68,573.49,604.44,550.95z M499.45,602.22c-6.18,10.75-22.71-5.47-22.71-5.47c0.79-11.76,7.07-5.53,11.55-8.67
		C492.76,584.94,505.55,591.62,499.45,602.22z M544.2,525.81c1.72-1.21,6.62,1.36,4.28,5.42c-2.37,4.12-8.71-2.1-8.71-2.1
		C540.07,524.63,542.48,527.02,544.2,525.81z M560.81,607.24c-3.19,5.54-11.71-2.82-11.71-2.82c0.4-6.06,3.65-2.85,5.95-4.47
		C557.37,598.33,563.96,601.77,560.81,607.24z M606.73,595.34c-8.53-1.39-5.73-11.81-5.73-11.81c4.54-5.87,7.7,0,12.21,1.05
		C616.93,585.45,615.15,596.71,606.73,595.34z M615.67,646.63c-4.74,1.66-5.51-7.68-5.51-7.68c3.35-3.39,3.63,0.18,5.83,0.4
		C618.19,639.57,620.34,645,615.67,646.63z"/>
	<path fill="#304E7B" d="M488.29,588.08c-4.48,3.14-10.76-3.08-11.55,8.67c0,0,16.53,16.22,22.71,5.47
		C505.55,591.62,492.76,584.94,488.29,588.08z"/>
	<path fill="#304E7B" d="M548.48,531.24c2.34-4.07-2.57-6.63-4.28-5.42c-1.72,1.21-4.13-1.18-4.43,3.33
		C539.77,529.14,546.11,535.36,548.48,531.24z"/>
	<path fill="#304E7B" d="M613.21,584.58c-4.5-1.05-7.67-6.92-12.21-1.05c0,0-2.81,10.42,5.73,11.81
		C615.15,596.71,616.93,585.45,613.21,584.58z"/>
	<path fill="#304E7B" d="M555.06,599.95c-2.31,1.62-5.55-1.59-5.95,4.47c0,0,8.52,8.36,11.71,2.82
		C563.96,601.77,557.37,598.33,555.06,599.95z"/>
	<path fill="#304E7B" d="M615.98,639.35c-2.2-0.22-2.48-3.79-5.83-0.4c0,0,0.78,9.34,5.51,7.68
		C620.34,645,618.19,639.57,615.98,639.35z"/>
	<path fill="#304E7B" d="M597.75,343.13c-56.45,0-94.35,22.71-111.08,35.36c-6.34,4.79-9.64,8.14-9.76,8.26l0.72,0.69
		c0.16-0.17,6.48-6.57,18.55-14.4c19.44-12.61,53.81-28.92,101.56-28.92c42.63,0,68.76,6.63,99.63,27.05
		c5.58,3.69,11.31,7.83,17.33,12.47l0.61-0.79c-4.01-3.09-7.89-5.95-11.69-8.62C670.01,350.64,643.22,343.13,597.75,343.13
		C597.75,343.13,597.75,343.13,597.75,343.13z"/>
</g>
<polygon fill="#172043" points="311.94,618.73 437.41,810.64 454.96,813.95 322.02,612.92 "/>
<polygon fill="#172043" points="837.42,677.31 849.83,681.61 755.45,825.15 747.06,813.95 "/>
<path fill="none" stroke="#EFEFEF" stroke-width="4" stroke-miterlimit="10" d="M829.73,688.94L647.17,965.01
	c-21.88,33.09-70.44,33.09-92.32,0L352.87,659.58"/>
<line fill="none" stroke="#EFEFEF" stroke-width="4" stroke-miterlimit="10" x1="296.67" y1="574.59" x2="364.6" y2="677.31"/>
<path fill="none" stroke="#EFEFEF" stroke-width="4" stroke-miterlimit="10" d="M844.99,694.07"/>
<line fill="none" stroke="#EFEFEF" stroke-width="4" stroke-miterlimit="10" x1="822.33" y1="700.12" x2="862.59" y2="639.25"/>
<g>
	<path fill="#172043" stroke="#172043" stroke-width="14" stroke-miterlimit="10" d="M437.12,847.04h-33.01V716.46h33.01V847.04z"/>
	<path fill="#172043" stroke="#172043" stroke-width="14" stroke-miterlimit="10" d="M472.35,805.73
		c13.09,15.86,41.87,16.6,42.79,2.58c0.37-7.38-11.62-11.62-22.32-13.09c-21.03-3.32-40.21-16.6-40.21-41.5
		c0-25.64,23.24-39.1,47.21-39.1c15.86,0,31.17,4.43,44.63,20.84l-21.58,16.6c-13.65-14.57-37.07-14.02-37.62,1.11
		c0.37,6.27,7.19,9.96,17.34,12.17c23.24,4.24,46.48,12.36,45,44.45c-1.11,25.27-27.67,39.1-51.64,39.1
		c-15.68,0-32.28-7.93-44.45-23.61L472.35,805.73z"/>
	<path fill="#172043" stroke="#172043" stroke-width="14" stroke-miterlimit="10" d="M561.8,716.46h33.01l27.48,63.81l27.67-63.81
		h33.01v130.58h-33.2l0.18-37.62l2.03-26.37l-1.11-0.18l-17.15,44.82h-22.69l-17.52-44.82l-0.92,0.18l2.21,26.37v37.62H561.8V716.46
		z"/>
	<path fill="#172043" stroke="#172043" stroke-width="14" stroke-miterlimit="10" d="M737.01,767.73h52.93v28.59h-52.93v19.55h57.54
		v31.17h-90.93V716.46h90.93v30.98h-57.54V767.73z"/>
</g>
<g>
	<path fill="#FFFFFF" stroke="#FFFFFF" stroke-width="10" stroke-miterlimit="10" d="M437.12,847.04h-33.01V716.46h33.01V847.04z"/>
	<path fill="#FFFFFF" stroke="#FFFFFF" stroke-width="10" stroke-miterlimit="10" d="M472.35,805.73
		c13.09,15.86,41.87,16.6,42.79,2.58c0.37-7.38-11.62-11.62-22.32-13.09c-21.03-3.32-40.21-16.6-40.21-41.5
		c0-25.64,23.24-39.1,47.21-39.1c15.86,0,31.17,4.43,44.63,20.84l-21.58,16.6c-13.65-14.57-37.07-14.02-37.62,1.11
		c0.37,6.27,7.19,9.96,17.34,12.17c23.24,4.24,46.48,12.36,45,44.45c-1.11,25.27-27.67,39.1-51.64,39.1
		c-15.68,0-32.28-7.93-44.45-23.61L472.35,805.73z"/>
	<path fill="#FFFFFF" stroke="#FFFFFF" stroke-width="10" stroke-miterlimit="10" d="M561.8,716.46h33.01l27.48,63.81l27.67-63.81
		h33.01v130.58h-33.2l0.18-37.62l2.03-26.37l-1.11-0.18l-17.15,44.82h-22.69l-17.52-44.82l-0.92,0.18l2.21,26.37v37.62H561.8V716.46
		z"/>
	<path fill="#FFFFFF" stroke="#FFFFFF" stroke-width="10" stroke-miterlimit="10" d="M737.01,767.73h52.93v28.59h-52.93v19.55h57.54
		v31.17h-90.93V716.46h90.93v30.98h-57.54V767.73z"/>
</g>
<g>
	<path fill="#172043" d="M437.12,847.04h-33.01V716.46h33.01V847.04z"/>
	<path fill="#172043" d="M472.35,805.73c13.09,15.86,41.87,16.6,42.79,2.58c0.37-7.38-11.62-11.62-22.32-13.09
		c-21.03-3.32-40.21-16.6-40.21-41.5c0-25.64,23.24-39.1,47.21-39.1c15.86,0,31.17,4.43,44.63,20.84l-21.58,16.6
		c-13.65-14.57-37.07-14.02-37.62,1.11c0.37,6.27,7.19,9.96,17.34,12.17c23.24,4.24,46.48,12.36,45,44.45
		c-1.11,25.27-27.67,39.1-51.64,39.1c-15.68,0-32.28-7.93-44.45-23.61L472.35,805.73z"/>
	<path fill="#172043" d="M561.8,716.46h33.01l27.48,63.81l27.67-63.81h33.01v130.58h-33.2l0.18-37.62l2.03-26.37l-1.11-0.18
		l-17.15,44.82h-22.69l-17.52-44.82l-0.92,0.18l2.21,26.37v37.62H561.8V716.46z"/>
	<path fill="#172043" d="M737.01,767.73h52.93v28.59h-52.93v19.55h57.54v31.17h-90.93V716.46h90.93v30.98h-57.54V767.73z"/>
</g>
<g>
</g>
<g>
</g>
<g>
</g>
<g>
</g>
<g>
</g>
<g>
</g>
</svg>
